<svg xmlns="http://www.w3.org/2000/svg" viewBox="0 0 1200 500" fill="none"><defs><linearGradient id="bg" x1="144" x2="1030" y1="22" y2="480" gradientUnits="userSpaceOnUse"><stop stop-color="#14302f"/><stop offset=".52" stop-color="#224843"/><stop offset="1" stop-color="#101827"/></linearGradient></defs><rect width="1200" height="500" rx="32" fill="url(#bg)"/><g opacity=".92"><rect x="104" y="112" width="216" height="126" rx="24" fill="#12342c" stroke="#2eb67d" stroke-opacity=".35"/><rect x="355" y="112" width="216" height="126" rx="24" fill="#15293b" stroke="#66b2ff" stroke-opacity=".3"/><rect x="606" y="112" width="216" height="126" rx="24" fill="#162f2d" stroke="#2eb67d" stroke-opacity=".35"/><rect x="857" y="112" width="239" height="126" rx="24" fill="#182131" stroke="#94a3b8" stroke-opacity=".28"/><rect x="173" y="264" width="216" height="126" rx="24" fill="#15293b" stroke="#66b2ff" stroke-opacity=".3"/><rect x="424" y="264" width="216" height="126" rx="24" fill="#12342c" stroke="#2eb67d" stroke-opacity=".35"/><rect x="675" y="264" width="216" height="126" rx="24" fill="#182131" stroke="#94a3b8" stroke-opacity=".28"/></g><path d="M171 201c14-32 38-51 72-51 31 0 58 15 75 39-14 32-42 54-78 54-31 0-53-11-69-42Z" fill="#8ecae6"/><path d="M227 153c0 27 0 42 11 52 8 7 11 14 11 22 0 12-8 22-22 22-11 0-20-6-25-17" stroke="#f5d06c" stroke-width="6" stroke-linecap="round" stroke-linejoin="round"/><path d="M414 204V153l46-31 46 31v51" stroke="#f5f7fb" stroke-width="8" stroke-linejoin="round"/><path d="M437 204v-29h46v29" fill="#ffbf6b"/><path d="M670 140h89v64h-89z" rx="14" fill="#ffffff"/><path d="M685 158h14v28h-14zM715 158h14v28h-14zM745 158h14v28h-14z" fill="#233041"/><path d="M911 173h120" stroke="#f5f7fb" stroke-width="8" stroke-linecap="round"/><path d="M934 150v82" stroke="#f5f7fb" stroke-width="8" stroke-linecap="round"/><path d="M946 173h76" stroke="#ffbf6b" stroke-width="8" stroke-linecap="round"/><path d="M248 316h64" stroke="#f5f7fb" stroke-width="10" stroke-linecap="round"/><path d="M246 342h64" stroke="#ffbf6b" stroke-width="10" stroke-linecap="round"/><path d="M489 326c0-25 20-45 45-45h40c25 0 45 20 45 45v27H489v-27Z" fill="#f5f7fb"/><path d="M721 313h124v22H721z" fill="#f5f7fb"/><path d="M721 342h91v22H721z" fill="#2eb67d"/><circle cx="879" cy="353" r="16" fill="#ffbf6b"/></svg>