<svg xmlns="http://www.w3.org/2000/svg" viewBox="0 0 1200 630" fill="none"><defs><linearGradient id="bg" x1="146" x2="1037" y1="42" y2="590" gradientUnits="userSpaceOnUse"><stop stop-color="#14302f"/><stop offset=".52" stop-color="#214843"/><stop offset="1" stop-color="#101827"/></linearGradient></defs><rect width="1200" height="630" rx="36" fill="url(#bg)"/><rect x="677" y="150" width="186" height="108" rx="22" fill="#12342c" stroke="#2eb67d" stroke-opacity=".4"/><rect x="891" y="150" width="186" height="108" rx="22" fill="#172232" stroke="#94a3b8" stroke-opacity=".3"/><rect x="677" y="286" width="186" height="108" rx="22" fill="#172232" stroke="#66b2ff" stroke-opacity=".32"/><rect x="891" y="286" width="186" height="108" rx="22" fill="#12342c" stroke="#2eb67d" stroke-opacity=".4"/><path d="M719 212c11-24 29-38 55-38 24 0 45 11 58 30-11 24-32 40-60 40-23 0-41-8-53-32Z" fill="#8ecae6"/><path d="M741 340h81v14h-81z" fill="#f5f7fb"/><path d="M932 202h104" stroke="#f5f7fb" stroke-width="8" stroke-linecap="round"/><path d="M950 180v67" stroke="#f5f7fb" stroke-width="8" stroke-linecap="round"/><path d="M962 202h61" stroke="#ffbf6b" stroke-width="8" stroke-linecap="round"/><path d="M931 331h106v20H931z" fill="#f5f7fb"/><path d="M931 360h79v20h-79z" fill="#2eb67d"/><text x="84" y="176" fill="#A7F3D0" font-family="Inter,Segoe UI,Arial,sans-serif" font-size="28" font-weight="700" letter-spacing="6">KENAI LISTINGS</text><text x="84" y="276" fill="#fff" font-family="Inter,Segoe UI,Arial,sans-serif" font-size="72" font-weight="800">Kenai Listings</text><text x="84" y="342" fill="#D8E3EC" font-family="Inter,Segoe UI,Arial,sans-serif" font-size="36" font-weight="600">Local classifieds for gear, jobs, services, and housing across the peninsula.</text><text x="84" y="398" fill="#FFC571" font-family="Inter,Segoe UI,Arial,sans-serif" font-size="28" font-weight="700">Kenai Peninsula, Alaska</text></svg>